<svg xmlns="http://www.w3.org/2000/svg" xmlns:xlink="http://www.w3.org/1999/xlink" version="1.1" x="0px" y="0px" viewBox="0 0 100 125" enable-background="new 0 0 100 100" xml:space="preserve"><path d="M68.5,39.8c2.4,0,4.3-2,4.3-4.3V14c0-2.4-2-4.3-4.3-4.3H54.2v0h-8.4v0H31.5c-2.4,0-4.3,2-4.3,4.3v21.5c0,2.4,2,4.3,4.3,4.3  h15.7v9.2H13.8c-1.5,0-2.8,1.2-2.8,2.8v9h5.6v-6.2h30.6v6.2h5.6v-6.2h30.6v6.2h5.6v-9c0-1.5-1.2-2.8-2.8-2.8H52.8v-9.2H68.5z   M57.1,24.7c0-1.7,1.4-3.1,3.1-3.1c1.7,0,3.1,1.4,3.1,3.1v0c0,1.7-1.4,3.1-3.1,3.1C58.5,27.8,57.1,26.4,57.1,24.7L57.1,24.7z   M42.9,24.7c0,1.7-1.4,3.1-3.1,3.1c-1.7,0-3.1-1.4-3.1-3.1v0c0-1.7,1.4-3.1,3.1-3.1C41.5,21.6,42.9,23,42.9,24.7L42.9,24.7z   M50,27.8c-1.7,0-3.1-1.4-3.1-3.1v0c0-1.7,1.4-3.1,3.1-3.1c1.7,0,3.1,1.4,3.1,3.1v0C53.1,26.4,51.7,27.8,50,27.8z M57.6,65.5H42.4  c-2.7,0-4.8,2.2-4.8,4.8v15.2c0,2.7,2.2,4.8,4.8,4.8h15.2c2.7,0,4.8-2.2,4.8-4.8V70.3C62.5,67.7,60.3,65.5,57.6,65.5z M56.9,80H43.1  v-4.1h13.7V80z M93.8,65.5H78.5c-2.7,0-4.8,2.2-4.8,4.8v15.2c0,2.7,2.2,4.8,4.8,4.8h15.2c2.7,0,4.8-2.2,4.8-4.8V70.3  C98.6,67.7,96.4,65.5,93.8,65.5z M93,80H79.3v-4.1H93V80z M21.5,65.5H6.2c-2.7,0-4.8,2.2-4.8,4.8v15.2c0,2.7,2.2,4.8,4.8,4.8h15.2  c2.7,0,4.8-2.2,4.8-4.8V70.3C26.3,67.7,24.1,65.5,21.5,65.5z M20.7,80H7v-4.1h13.7V80z"/><text x="0" y="115" fill="#000000" font-size="5px" font-weight="bold" font-family="'Helvetica Neue', Helvetica, Arial-Unicode, Arial, Sans-serif">Created by Gregor Cresnar</text><text x="0" y="120" fill="#000000" font-size="5px" font-weight="bold" font-family="'Helvetica Neue', Helvetica, Arial-Unicode, Arial, Sans-serif">from the Noun Project</text></svg>