<svg xmlns="http://www.w3.org/2000/svg" xmlns:xlink="http://www.w3.org/1999/xlink" version="1.1" x="0px" y="0px" viewBox="0 0 512 640" style="enable-background:new 0 0 512 512;" xml:space="preserve"><g><g><path d="M131.109,261H81.076C83.686,353.53,158.47,428.314,251,430.924v-50.032C186.044,378.322,133.678,325.956,131.109,261z"/><path d="M330.814,251h40.07C368.328,191.559,320.441,143.671,261,141.115v40.07C298.376,183.66,328.34,213.624,330.814,251z"/><path d="M181.185,261h-40.07c2.556,59.441,50.443,107.328,109.885,109.885v-40.07C213.624,328.34,183.66,298.376,181.185,261z"/><path d="M251,181.185v-40.064c-42.854,1.876-81.569,27.732-99.575,66.964c-1.152,2.51-4.122,3.611-6.63,2.459    c-2.51-1.152-3.611-4.12-2.459-6.63c19.631-42.773,61.912-70.924,108.664-72.807V81.076C158.47,83.686,83.686,158.47,81.076,251    h100.109C183.66,213.624,213.624,183.66,251,181.185z"/><path d="M261,330.814v40.066c43.714-1.894,82.769-28.486,100.419-68.85c1.106-2.53,4.056-3.686,6.584-2.578    c2.53,1.106,3.685,4.055,2.578,6.584c-19.244,44.005-61.892,72.958-109.581,74.857v50.029    C353.53,428.314,428.314,353.53,430.924,261H330.814C328.34,298.376,298.376,328.34,261,330.814z"/><path d="M261,320.789c31.858-2.438,57.351-27.931,59.789-59.789H276c-2.762,0-5-2.238-5-5s2.238-5,5-5h44.789    c-2.438-31.859-27.931-57.351-59.789-59.789V236c0,2.761-2.238,5-5,5s-5-2.239-5-5v-44.789    c-31.859,2.438-57.351,27.929-59.789,59.789H226c2.761,0,5,2.238,5,5s-2.239,5-5,5h-34.789    c2.438,31.858,27.929,57.351,59.789,59.789V286c0-2.762,2.238-5,5-5s5,2.238,5,5V320.789z"/><path d="M380.892,251h50.032C428.314,158.47,353.53,83.686,261,81.076v50.033C325.956,133.678,378.322,186.044,380.892,251z"/></g></g><text x="0" y="527" fill="#000000" font-size="5px" font-weight="bold" font-family="'Helvetica Neue', Helvetica, Arial-Unicode, Arial, Sans-serif">Created by Flatart</text><text x="0" y="532" fill="#000000" font-size="5px" font-weight="bold" font-family="'Helvetica Neue', Helvetica, Arial-Unicode, Arial, Sans-serif">from the Noun Project</text></svg>