<svg xmlns="http://www.w3.org/2000/svg" xmlns:xlink="http://www.w3.org/1999/xlink" version="1.1" x="0px" y="0px" viewBox="0 0 52 65" style="enable-background:new 0 0 52 52;" xml:space="preserve"><g><path d="M22,37c0-1.9,1.3-3.4,3-3.9V27h-7c-0.6,0-1-0.4-1-1c0-0.5-0.2-1-0.6-1.4C16,24.2,15.5,24,15,24c-1.1,0-2,0.9-2,2   c0,0.6-0.4,1-1,1H5v20h20v-6.1C23.3,40.4,22,38.9,22,37z"/><path d="M15,22c1.1,0,2.1,0.4,2.8,1.2c0.5,0.5,0.9,1.1,1,1.8H25v-7c0-0.6,0.4-1,1-1c1.1,0,2-0.9,2-2s-0.9-2-2-2c-0.6,0-1-0.4-1-1V5   H5v20h6.1C11.6,23.3,13.1,22,15,22z"/><path d="M27,5v6.1c1.7,0.4,3,2,3,3.9s-1.3,3.4-3,3.9V25h7c0.6,0,1,0.4,1,1c0,1.1,0.9,2,2,2s2-0.9,2-2c0-0.6,0.4-1,1-1h7V5H27z"/><path d="M37,30c-1.9,0-3.4-1.3-3.9-3H27v7c0,0.6-0.4,1-1,1c-1.1,0-2,0.9-2,2s0.9,2,2,2c0.6,0,1,0.4,1,1v7h20V27h-6.1   C40.4,28.7,38.9,30,37,30z"/></g><text x="0" y="67" fill="#000000" font-size="5px" font-weight="bold" font-family="'Helvetica Neue', Helvetica, Arial-Unicode, Arial, Sans-serif">Created by DinosoftLab</text><text x="0" y="72" fill="#000000" font-size="5px" font-weight="bold" font-family="'Helvetica Neue', Helvetica, Arial-Unicode, Arial, Sans-serif">from the Noun Project</text></svg>